<?xml version="1.0" encoding="utf-8"?><!-- Uploaded to: SVG Repo, www.svgrepo.com, Generator: SVG Repo Mixer Tools -->
<svg width="800px" height="800px" viewBox="0 0 24 24" fill="none" xmlns="http://www.w3.org/2000/svg">
<path fill-rule="evenodd" clip-rule="evenodd" d="M16.2929 9.29289C16.6834 8.90237 17.3166 8.90237 17.7071 9.29289L19 10.5858L20.2929 9.29289C20.6834 8.90237 21.3166 8.90237 21.7071 9.29289C22.0976 9.68342 22.0976 10.3166 21.7071 10.7071L20.4142 12L21.7071 13.2929C22.0976 13.6834 22.0976 14.3166 21.7071 14.7071C21.3166 15.0976 20.6834 15.0976 20.2929 14.7071L19 13.4142L17.7071 14.7071C17.3166 15.0976 16.6834 15.0976 16.2929 14.7071C15.9024 14.3166 15.9024 13.6834 16.2929 13.2929L17.5858 12L16.2929 10.7071C15.9024 10.3166 15.9024 9.68342 16.2929 9.29289Z" fill="#000000"/>
<path fill-rule="evenodd" clip-rule="evenodd" d="M10.8397 4C9.38012 4 7.99337 4.63781 7.04346 5.74604C6.70415 6.1419 6.30972 6.44883 5.78377 6.55109L5.23652 6.6575C3.35695 7.02297 2 8.6692 2 10.584V13.416C2 15.3308 3.35696 16.977 5.23652 17.3425L5.78377 17.4489C6.30972 17.5512 6.70415 17.8581 7.04346 18.254C7.99337 19.3622 9.38012 20 10.8397 20H11C12.6569 20 14 18.6569 14 17V7C14 5.34315 12.6569 4 11 4H10.8397Z" fill="#000000"/>
</svg>