<?xml version="1.0" encoding="utf-8"?><!-- Uploaded to: SVG Repo, www.svgrepo.com, Generator: SVG Repo Mixer Tools -->
<svg width="800px" height="800px" viewBox="0 0 24 24" fill="none" xmlns="http://www.w3.org/2000/svg">
<path fill-rule="evenodd" clip-rule="evenodd" d="M19.2942 6.63396C19.7725 6.35782 20.3841 6.52169 20.6603 6.99998C21.5379 8.52018 22 10.2446 22 12C22 13.7553 21.5379 15.4798 20.6603 17C20.3841 17.4783 19.7725 17.6421 19.2942 17.366C18.8159 17.0899 18.6521 16.4783 18.9282 16C19.6304 14.7838 20 13.4043 20 12C20 10.5957 19.6304 9.21614 18.9282 7.99998C18.6521 7.52169 18.8159 6.9101 19.2942 6.63396Z" fill="#000000"/>
<path fill-rule="evenodd" clip-rule="evenodd" d="M16.399 8.30553C16.8773 8.02939 17.4889 8.19326 17.765 8.67155C18.3493 9.68353 18.6568 10.8315 18.6568 12C18.6568 13.1685 18.3493 14.3164 17.765 15.3284C17.4889 15.8067 16.8773 15.9706 16.399 15.6944C15.9207 15.4183 15.7568 14.8067 16.0329 14.3284C16.4417 13.6205 16.6568 12.8174 16.6568 12C16.6568 11.1825 16.4417 10.3795 16.0329 9.67155C15.7568 9.19326 15.9207 8.58167 16.399 8.30553Z" fill="#000000"/>
<path fill-rule="evenodd" clip-rule="evenodd" d="M10.8397 4C9.38012 4 7.99337 4.63781 7.04346 5.74604C6.70415 6.1419 6.30972 6.44883 5.78377 6.55109L5.23652 6.6575C3.35695 7.02297 2 8.6692 2 10.584V13.416C2 15.3308 3.35696 16.977 5.23652 17.3425L5.78377 17.4489C6.30972 17.5512 6.70415 17.8581 7.04346 18.254C7.99337 19.3622 9.38012 20 10.8397 20H11C12.6569 20 14 18.6569 14 17V7C14 5.34315 12.6569 4 11 4H10.8397Z" fill="#000000"/>
</svg>