<?xml version="1.0" encoding="UTF-8" standalone="no"?>
<!-- Created with Inkscape (http://www.inkscape.org/) -->

<svg
   width="32"
   height="32"
   viewBox="0 0 8.4666667 8.4666667"
   version="1.1"
   id="svg1"
   xml:space="preserve"
   xmlns="http://www.w3.org/2000/svg"
   xmlns:svg="http://www.w3.org/2000/svg"><defs
     id="defs1" /><g
     id="layer1"><rect
       style="fill:#800000;stroke:none;stroke-width:1.08273;stroke-linejoin:round"
       id="rect3"
       width="8.4666662"
       height="8.4666662"
       x="4.4408921e-16"
       y="-1.110223e-16" /><path
       d="M 4.0785832,5.1600534 A 0.87633622,0.87633622 0 0 1 4.9549181,6.0363892 0.87633622,0.87633622 0 0 1 4.0785832,6.9127239 0.87633622,0.87633622 0 0 1 3.2022448,6.0363892 0.87633622,0.87633622 0 0 1 4.0785832,5.1600534 m 0.7168419,0.8763358 c 0,-0.3347609 -0.2304746,-0.616942 -0.5415768,-0.6949361 V 5.5105874 H 3.9033149 V 5.3414531 C 3.5922157,5.4194472 3.3617408,5.7016283 3.3617408,6.0363892 A 0.71684304,0.71684304 0 0 0 4.0785832,6.7532311 0.71684304,0.71684304 0 0 0 4.7954251,6.0363892 M 3.640414,5.9172086 A 0.11918171,0.11918171 0 0 1 3.7595947,6.0363892 0.11918171,0.11918171 0 0 1 3.640414,6.1555698 c -0.065726,0 -0.1191805,-0.053454 -0.1191805,-0.1191806 0,-0.065727 0.053454,-0.1191806 0.1191805,-0.1191806 m 0.8763357,0 A 0.11918171,0.11918171 0 0 1 4.635933,6.0363892 0.11918171,0.11918171 0 0 1 4.5167497,6.1555698 0.11918171,0.11918171 0 0 1 4.3975684,6.0363892 0.11918171,0.11918171 0 0 1 4.5167497,5.9172086 m -0.757155,0.3181072 a 0.12005807,0.12005807 0 0 1 0.1200584,0.1200585 c 0,0.065726 -0.053455,0.119184 -0.1200584,0.119184 A 0.11918171,0.11918171 0 0 1 3.640414,6.3553743 c 0,-0.066601 0.053458,-0.1200585 0.1191807,-0.1200585 m 0.6379737,0 c 0.065726,0 0.1191813,0.053458 0.1191813,0.1200585 a 0.11918171,0.11918171 0 0 1 -0.1191813,0.119184 c -0.0666,0 -0.1200584,-0.053458 -0.1200584,-0.119184 A 0.12005807,0.12005807 0 0 1 4.3975684,6.2353158 M 4.0785832,6.3553743 A 0.11918171,0.11918171 0 0 1 4.1977635,6.4745583 0.11918171,0.11918171 0 0 1 4.0785832,6.593739 0.11918171,0.11918171 0 0 1 3.9593993,6.4745583 0.11918171,0.11918171 0 0 1 4.0785832,6.3553743 Z"
       id="path1"
       style="fill:#f9f9f9;stroke:none;stroke-width:0.033024;stroke-dasharray:none;stroke-opacity:1" /><g
       id="g1"
       transform="matrix(0.01044229,0,0,0.01044229,-0.94653453,0.88253418)"
       style="fill:#f9f9f9;stroke:none;stroke-width:4.99181;stroke-dasharray:none;stroke-opacity:1"><path
         aria-label="M"
         text-data="M"
         d="m 137,96 h 233 c 19.6,0 31,16.9 31,37 V 362 H 336 V 163 H 298 V 362 H 239 V 163 h -37 v 199 h -65 z"
         id="path1-1"
         style="fill:#f9f9f9;stroke:none;stroke-width:4.99181;stroke-dasharray:none;stroke-opacity:1" /><rect
         aria-label="I"
         text-data="I"
         x="433"
         y="96"
         width="65"
         height="266"
         id="rect1"
         style="fill:#f9f9f9;stroke:none;stroke-width:4.99181;stroke-dasharray:none;stroke-opacity:1" /><path
         aria-label="D"
         text-data="D"
         d="m 529,96 h 193 c 19.6,0 31,16.9 31,37 v 196 c 0,24.9 -10.4,33 -33,33 H 529 V 193 h 66 v 104 h 93 V 156 H 529 Z"
         id="path2"
         style="fill:#f9f9f9;stroke:none;stroke-width:4.99181;stroke-dasharray:none;stroke-opacity:1" /><rect
         aria-label="I"
         text-data="I"
         x="783"
         y="96"
         width="66"
         height="266"
         id="rect2"
         style="fill:#f9f9f9;stroke:none;stroke-width:4.99181;stroke-dasharray:none;stroke-opacity:1" /></g><text
       xml:space="preserve"
       style="font-style:normal;font-variant:normal;font-weight:normal;font-stretch:normal;font-size:2.53773px;line-height:1.25;font-family:'Bauhaus 93';-inkscape-font-specification:'Bauhaus 93, Normal';font-variant-ligatures:normal;font-variant-caps:normal;font-variant-numeric:normal;font-variant-east-asian:normal;letter-spacing:0px;word-spacing:0px;fill:#f9f9f9;fill-opacity:1;stroke:none;stroke-width:0.0482853;stroke-dasharray:none;stroke-opacity:1"
       x="5.0381413"
       y="6.8610268"
       id="text1"><tspan
         id="tspan1"
         style="font-style:normal;font-variant:normal;font-weight:normal;font-stretch:normal;font-size:2.53773px;font-family:'Bauhaus 93';-inkscape-font-specification:'Bauhaus 93, Normal';font-variant-ligatures:normal;font-variant-caps:normal;font-variant-numeric:normal;font-variant-east-asian:normal;fill:#f9f9f9;stroke:none;stroke-width:0.0482853;stroke-dasharray:none;stroke-opacity:1"
         x="5.0381413"
         y="6.8610268">RU</tspan></text></g></svg>
